<svg xmlns="http://www.w3.org/2000/svg" width="600" height="400" viewBox="0 0 600 400">
  <g fill="#1a1a1a" stroke="#1a1a1a" stroke-width="0.45" stroke-linecap="round" stroke-linejoin="round">
    <path d="M 300.0 200.0 L 300.2 200.0 L 300.4 200.1 L 300.5 200.2 L 300.7 200.3 L 300.8 200.4 L 301.0 200.6 L 301.0 200.8 L 301.1 201.0 L 301.1 201.3 L 301.1 201.5 L 301.1 201.8 L 301.0 202.0 L 300.8 202.3 L 300.7 202.6 L 300.4 202.8 L 300.2 203.0 L 299.9 203.2 L 299.6 203.4 L 299.2 203.5 L 298.8 203.6 L 298.4 203.6 L 298.0 203.6 L 297.6 203.6 L 297.1 203.5 L 296.7 203.3 L 296.2 203.1 L 295.8 202.9 L 295.4 202.5 L 295.0 202.2 L 294.6 201.7 L 294.3 201.3 L 294.0 200.8 L 293.8 200.2 L 293.6 199.6 L 293.5 199.0 L 293.4 198.3 L 293.4 197.6 L 293.5 197.0 L 293.7 196.3 L 293.9 195.6 L 294.2 194.9 L 294.6 194.2 L 295.0 193.6 L 295.6 193.0 L 296.1 192.4 L 296.8 191.9 L 297.5 191.5 L 298.3 191.1 L 299.1 190.8 L 300.0 190.6 L 300.9 190.4 L 301.8 190.4 L 302.8 190.4 L 303.7 190.5 L 304.7 190.8 L 305.7 191.1 L 306.6 191.5 L 307.5 192.0 L 308.3 192.6 L 309.1 193.4 L 309.9 194.1 L 310.6 195.0 L 311.2 196.0 L 311.7 197.0 L 312.1 198.1 L 312.4 199.2 L 312.6 200.4 L 312.7 201.6 L 312.7 202.8 L 312.5 204.1 L 312.3 205.3 L 311.9 206.5 L 311.4 207.7 L 310.7 208.9 L 310.0 210.0 L 309.1 211.0 L 308.2 212.0 L 307.1 212.9 L 305.9 213.7 L 304.7 214.3 L 303.3 214.9 L 301.9 215.3 L 300.5 215.6 L 299.0 215.8 L 297.5 215.8 L 296.0 215.7 L 294.4 215.4 L 292.9 215.0 L 291.5 214.4 L 290.0 213.7 L 288.7 212.9 L 287.4 211.9 L 286.1 210.7 L 285.0 209.5 L 284.0 208.1 L 283.2 206.7 L 282.4 205.1 L 281.9 203.5 L 281.4 201.8 L 281.2 200.0 L 281.0 198.2 L 281.1 196.4 L 281.4 194.6 L 281.8 192.8 L 282.4 191.0 L 283.1 189.3 L 284.1 187.6 L 285.2 186.1 L 286.4 184.6 L 287.8 183.2 L 289.3 182.0 L 291.0 180.9 L 292.8 180.0 L 294.7 179.2 L 296.6 178.6 L 298.6 178.2 L 300.7 178.0 L 302.8 177.9 L 304.9 178.1 L 307.0 178.5 L 309.1 179.1 L 311.1 179.8 L 313.0 180.8 L 314.9 182.0 L 316.7 183.3 L 318.3 184.9 L 319.8 186.5 L 321.1 188.4 L 322.3 190.3 L 323.3 192.4 L 324.1 194.6 L 324.7 196.9 L 325.1 199.2 L 325.2 201.6 L 325.1 204.0 L 324.8 206.4 L 324.3 208.7 L 323.5 211.1 L 322.6 213.3 L 321.3 215.5 L 319.9 217.6 L 318.3 219.5 L 316.5 221.3 L 314.5 222.9 L 312.4 224.4 L 310.1 225.6 L 307.7 226.6 L 305.2 227.4 L 302.6 228.0 L 300.0 228.3 L 297.3 228.3 L 294.6 228.1 L 292.0 227.7 L 289.3 227.0 L 286.7 226.0 L 284.2 224.8 L 281.9 223.4 L 279.6 221.7 L 277.5 219.8 L 275.6 217.7 L 273.9 215.4 L 272.4 213.0 L 271.1 210.4 L 270.1 207.7 L 269.3 204.9 L 268.8 202.0 L 268.5 199.0 L 268.6 196.0 L 268.9 193.1 L 269.5 190.1 L 270.4 187.2 L 271.6 184.4 L 273.0 181.7 L 274.7 179.1 L 276.7 176.7 L 278.9 174.4 L 281.2 172.4 L 283.8 170.6 L 286.6 169.0 L 289.5 167.7 L 292.6 166.7 L 295.7 166.0 L 298.9 165.5 L 302.2 165.4 L 305.5 165.6 L 308.7 166.0 L 311.9 166.8 L 315.1 167.9 L 318.1 169.3 L 321.1 171.0 L 323.8 173.0 L 326.4 175.2 L 328.7 177.7 L 330.9 180.4 L 332.8 183.3 L 334.4 186.4 L 335.7 189.6 L 336.7 193.0 L 337.3 196.5 L 337.7 200.0 L 337.7 203.6 L 337.4 207.1 L 336.7 210.7 L 335.8 214.2 L 334.4 217.5 L 332.8 220.8 L 330.8 223.9 L 328.6 226.8 L 326.1 229.6 L 323.3 232.0 L 320.2 234.2 L 317.0 236.2 L 313.6 237.8 L 310.0 239.1 L 306.3 240.0 L 302.6 240.6 L 298.7 240.9 L 294.8 240.8 L 291.0 240.3 L 287.2 239.4 L 283.5 238.2 L 279.8 236.7 L 276.4 234.8 L 273.1 232.5 L 270.0 230.0 L 267.2 227.2 L 264.6 224.1 L 262.3 220.7 L 260.4 217.1 L 258.8 213.4 L 257.5 209.5 L 256.6 205.5 L 256.1 201.4 L 256.0 197.2 L 256.2 193.1 L 256.9 188.9 L 258.0 184.9 L 259.4 180.9 L 261.2 177.1 L 263.4 173.4 L 265.9 170.0 L 268.8 166.7 L 271.9 163.8 L 275.4 161.2 L 279.0 158.9 L 282.9 156.9 L 287.0 155.3 L 291.2 154.1 L 295.6 153.3 L 300.0 152.9 L 304.5 152.9 L 308.9 153.3 L 313.3 154.2 L 317.6 155.5 L 321.8 157.2 L 325.9 159.3 L 329.7 161.7 L 333.3 164.5 L 336.6 167.7 L 339.6 171.2 L 342.3 175.0 L 344.7 179.0 L 346.6 183.2 L 348.2 187.6 L 349.3 192.2 L 350.0 196.9 L 350.3 201.6 L 350.1 206.3 L 349.5 211.1 L 348.4 215.7 L 346.9 220.3 L 344.9 224.7 L 342.6 228.9 L 339.8 232.9 L 336.7 236.7 L 333.2 240.1 L 329.3 243.2 L 325.2 245.9 L 320.9 248.3 L 316.3 250.2 L 311.6 251.7 L 306.7 252.7 L 301.7 253.3 L 296.6 253.4 L 291.6 253.1 L 286.6 252.2 L 281.7 250.9 L 276.9 249.1 L 272.3 246.9 L 267.9 244.2 L 263.7 241.1 L 259.9 237.7 L 256.4 233.9 L 253.2 229.7 L 250.5 225.2 L 248.1 220.5 L 246.2 215.6 L 244.8 210.5 L 243.9 205.3 L 243.5 200.0 L 243.5 194.7 L 244.1 189.3 L 245.2 184.1 L 246.7 178.9 L 248.8 173.9 L 251.3 169.1 L 254.3 164.5 L 257.7 160.3 L 261.5 156.3 L 265.7 152.7 L 270.2 149.5 L 275.0 146.8 L 280.0 144.5 L 285.3 142.7 L 290.7 141.4 L 296.3 140.6 L 301.9 140.3 L 307.5 140.5 L 313.1 141.3 L 318.6 142.6 L 324.0 144.5 L 329.2 146.8 L 334.2 149.6 L 338.9 152.9 L 343.3 156.7 L 347.3 160.8 L 351.0 165.4 L 354.2 170.2 L 356.9 175.4 L 359.2 180.8 L 360.9 186.4 L 362.1 192.2 L 362.7 198.0 L 362.8 204.0 L 362.4 209.9 L 361.3 215.8 L 359.8 221.5 L 357.6 227.1 L 355.0 232.5 L 351.8 237.7 L 348.2 242.5 L 344.1 247.0 L 339.6 251.1 L 334.7 254.7 L 329.5 257.9 L 324.0 260.6 L 318.2 262.8 L 312.3 264.4 L 306.2 265.5 L 300.0 266.0 L 293.8 265.9 L 287.6 265.2 L 281.4 263.9 L 275.4 262.0 L 269.6 259.6 L 264.0 256.7 L 258.8 253.2 L 253.8 249.2 L 249.2 244.8 L 245.1 239.9 L 241.4 234.6 L 238.3 229.1 L 235.6 223.2 L 233.5 217.1 L 232.0 210.8 L 231.1 204.3 L 230.9 197.8 L 231.2 191.3 L 232.1 184.8 L 233.7 178.4 L 235.8 172.2 L 238.6 166.2 L 241.8 160.5 L 245.7 155.1 L 250.0 150.0 L 254.8 145.4 L 260.1 141.2 L 265.7 137.6 L 271.6 134.4 L 277.9 131.9 L 284.3 129.9 L 291.0 128.6 L 297.7 127.8 L 304.5 127.8 L 311.4 128.3 L 318.1 129.5 L 324.7 131.4 L 331.1 133.8 L 337.3 136.9 L 343.2 140.5 L 348.7 144.7 L 353.9 149.4 L 358.5 154.6 L 362.7 160.2 L 366.3 166.2 L 369.4 172.5 L 371.9 179.1 L 373.7 185.9 L 374.9 192.9 L 375.4 200.0 L 375.3 207.1 L 374.4 214.2 L 372.9 221.2 L 370.8 228.0 L 368.0 234.7 L 364.6 241.0 L 360.6 247.0 L 356.1 252.6 L 351.0 257.8 L 345.4 262.5 L 339.4 266.7 L 333.1 270.3 L 326.4 273.2 L 319.4 275.6 L 312.2 277.3 L 304.9 278.3 L 297.5 278.6 L 290.1 278.2 L 282.8 277.1 L 275.5 275.3 L 268.5 272.8 L 261.7 269.7 L 255.2 265.9 L 249.1 261.6 L 243.4 256.6 L 238.1 251.2 L 233.4 245.2 L 229.3 238.9 L 225.8 232.1 L 222.9 225.0 L 220.7 217.7 L 219.2 210.2 L 218.4 202.6 L 218.4 194.9 L 219.0 187.2 L 220.4 179.6 L 222.5 172.1 L 225.3 164.8 L 228.8 157.9 L 232.9 151.3 L 237.6 145.0 L 243.0 139.3 L 248.8 134.0 L 255.2 129.3 L 261.9 125.3 L 269.1 121.8 L 276.5 119.1 L 284.2 117.0 L 292.0 115.7 L 300.0 115.2 L 308.0 115.4 L 316.0 116.3 L 323.8 118.0 L 331.5 120.4 L 338.9 123.6 L 346.1 127.4 L 352.8 131.9 L 359.1 137.1 L 364.9 142.8 L 370.1 149.0 L 374.8 155.8 L 378.8 162.9 L 382.1 170.4 L 384.7 178.2 L 386.6 186.3 L 387.7 194.5 L 388.0 202.8 L 387.5 211.1 L 386.3 219.3 L 384.3 227.4 L 381.5 235.3 L 378.0 242.9 L 373.7 250.1 L 368.8 257.0 L 363.3 263.3 L 357.2 269.1 L 350.5 274.4 L 343.4 279.0 L 335.9 282.9 L 328.0 286.0 L 319.8 288.5 L 311.4 290.1 L 302.9 291.0 L 294.3 291.1 L 285.7 290.3 L 277.2 288.7 L 268.9 286.4 L 260.8 283.2 L 253.1 279.3 L 245.7 274.7 L 238.8 269.4 L 232.4 263.5 L 226.6 257.0 L 221.4 249.9 L 216.9 242.4 L 213.1 234.4 L 210.0 226.1 L 207.8 217.6 L 206.4 208.9 L 205.8 200.0 L 206.0 191.1 L 207.1 182.3 L 209.0 173.5 L 211.7 165.0 L 215.2 156.8 L 219.5 148.9 L 224.5 141.4 L 230.2 134.5 L 236.6 128.0 L 243.5 122.2 L 251.0 117.1 L 258.9 112.7 L 267.2 109.0 L 275.9 106.2 L 284.8 104.1 L 293.9 102.9 L 303.1 102.6 L 312.2 103.1 L 321.3 104.5 L 330.3 106.8 L 339.0 109.9 L 347.4 113.8 L 355.4 118.5 L 363.0 123.9 L 370.0 130.0 L 376.4 136.8 L 382.2 144.2 L 387.2 152.1 L 391.5 160.4 L 395.0 169.1 L 397.7 178.2 L 399.5 187.4 L 400.4 196.8 L 400.5 206.3 L 399.6 215.8 L 397.9 225.1 L 395.2 234.3 L 391.8 243.2 L 387.5 251.7 L 382.3 259.8 L 376.5 267.4 L 369.9 274.5 L 362.7 280.9 L 354.9 286.6 L 346.6 291.5 L 337.9 295.7 L 328.8 299.0 L 319.4 301.5 L 309.7 303.0 L 300.0 303.7 L 290.2 303.4 L 280.5 302.2 L 270.9 300.1 L 261.6 297.1 L 252.5 293.2 L 243.8 288.5 L 235.6 283.0 L 228.0 276.7 L 221.0 269.7 L 214.6 262.0 L 209.0 253.8 L 204.1 245.1 L 200.2 235.9 L 197.0 226.4 L 194.8 216.7 L 193.5 206.7 L 193.2 196.6 L 193.8 186.6 L 195.3 176.6 L 197.8 166.8 L 201.2 157.3 L 205.5 148.1 L 210.7 139.3 L 216.6 131.0 L 223.4 123.4 L 230.8 116.3 L 238.9 110.0 L 247.5 104.5 L 256.7 99.8 L 266.2 96.0 L 276.1 93.1 L 286.3 91.2 L 296.5 90.2 L 306.9 90.1 L 317.3 91.1 L 327.5 93.0 L 337.5 95.9 L 347.2 99.7 L 356.5 104.4 L 365.4 110.0 L 373.7 116.4 L 381.3 123.6 L 388.3 131.5 L 394.5 140.0 L 399.9 149.1 L 404.5 158.6 L 408.1 168.6 L 410.7 178.9 L 412.4 189.4 L 413.1 200.0" fill="none" />
    <circle cx="289.0" cy="176.5" r="1.3" />
    <circle cx="258.0" cy="215.9" r="1.3" />
    <circle cx="223.0" cy="275.7" r="1.3" />
    <circle cx="289.7" cy="198.5" r="1.3" />
    <circle cx="296.5" cy="205.5" r="1.3" />
    <circle cx="227.0" cy="276.1" r="1.3" />
    <circle cx="300.4" cy="247.5" r="1.3" />
    <circle cx="273.5" cy="208.5" r="1.3" />
    <circle cx="274.1" cy="223.0" r="1.3" />
    <circle cx="276.9" cy="187.9" r="1.3" />
    <circle cx="288.8" cy="268.9" r="1.3" />
    <circle cx="384.7" cy="233.1" r="1.3" />
    <circle cx="319.7" cy="128.9" r="1.3" />
    <circle cx="234.6" cy="180.9" r="1.3" />
    <circle cx="298.7" cy="195.2" r="1.3" />
    <circle cx="307.6" cy="219.3" r="1.3" />
    <circle cx="334.7" cy="138.5" r="1.3" />
    <circle cx="237.8" cy="158.7" r="1.3" />
    <circle cx="345.0" cy="231.1" r="1.3" />
    <circle cx="312.7" cy="203.8" r="1.3" />
    <circle cx="296.0" cy="151.4" r="1.3" />
    <circle cx="194.5" cy="164.7" r="1.3" />
    <circle cx="303.3" cy="185.9" r="1.3" />
    <circle cx="333.0" cy="144.4" r="1.3" />
    <circle cx="270.7" cy="93.8" r="1.3" />
    <circle cx="249.7" cy="122.1" r="1.3" />
    <circle cx="382.0" cy="215.0" r="1.3" />
    <circle cx="217.1" cy="134.0" r="1.3" />
    <circle cx="230.1" cy="163.6" r="1.3" />
    <circle cx="279.1" cy="228.2" r="1.3" />
    <circle cx="210.3" cy="151.3" r="1.3" />
    <circle cx="286.8" cy="176.8" r="1.3" />
    <circle cx="220.4" cy="208.8" r="1.3" />
    <circle cx="336.2" cy="288.5" r="1.3" />
    <circle cx="303.2" cy="197.2" r="1.3" />
    <circle cx="312.7" cy="306.2" r="1.3" />
    <circle cx="307.6" cy="263.7" r="1.3" />
    <circle cx="378.8" cy="180.9" r="1.3" />
    <circle cx="355.1" cy="214.2" r="1.3" />
    <circle cx="326.3" cy="109.0" r="1.3" />
    <circle cx="252.9" cy="174.0" r="1.3" />
    <circle cx="332.6" cy="213.8" r="1.3" />
    <circle cx="285.9" cy="307.3" r="1.3" />
    <circle cx="301.2" cy="199.9" r="1.3" />
    <circle cx="299.8" cy="183.7" r="1.3" />
    <circle cx="489.0" cy="128.8" r="1.3" />
    <circle cx="48.0" cy="339.9" r="1.3" />
    <circle cx="554.8" cy="46.7" r="1.3" />
    <circle cx="292.0" cy="40.6" r="1.3" />
    <circle cx="448.5" cy="298.4" r="1.3" />
    <circle cx="88.2" cy="190.9" r="1.3" />
    <circle cx="328.4" cy="113.1" r="1.3" />
    <circle cx="512.3" cy="171.6" r="1.3" />
    <circle cx="135.7" cy="214.5" r="1.3" />
    <circle cx="431.1" cy="89.4" r="1.3" />
    <circle cx="192.7" cy="383.2" r="1.3" />
    <circle cx="385.4" cy="177.1" r="1.3" />
    <circle cx="310.0" cy="59.8" r="1.3" />
    <circle cx="143.1" cy="140.1" r="1.3" />
    <circle cx="350.3" cy="100.1" r="1.3" />
    <circle cx="140.5" cy="41.3" r="1.3" />
    <circle cx="374.7" cy="99.7" r="1.3" />
    <circle cx="531.1" cy="333.1" r="1.3" />
  </g>
</svg>
