<svg xmlns="http://www.w3.org/2000/svg" width="400" height="80" viewBox="0 0 400 80">
  <g fill="#0e2236" stroke="#0e2236" stroke-width="0.4" stroke-linecap="round" fill-opacity="1">
    <path d="M 0.00 40.00 L 2.00 41.13 L 4.00 42.26 L 6.00 43.37 L 8.00 44.48 L 10.00 45.56 L 12.00 46.63 L 14.00 47.66 L 16.00 48.67 L 18.00 49.64 L 20.00 50.58 L 22.00 51.47 L 24.00 52.32 L 26.00 53.12 L 28.00 53.87 L 30.00 54.56 L 32.00 55.20 L 34.00 55.77 L 36.00 56.29 L 38.00 56.74 L 40.00 57.12 L 42.00 57.43 L 44.00 57.68 L 46.00 57.86 L 48.00 57.96 L 50.00 58.00 L 52.00 57.96 L 54.00 57.86 L 56.00 57.68 L 58.00 57.43 L 60.00 57.12 L 62.00 56.74 L 64.00 56.29 L 66.00 55.77 L 68.00 55.20 L 70.00 54.56 L 72.00 53.87 L 74.00 53.12 L 76.00 52.32 L 78.00 51.47 L 80.00 50.58 L 82.00 49.64 L 84.00 48.67 L 86.00 47.66 L 88.00 46.63 L 90.00 45.56 L 92.00 44.48 L 94.00 43.37 L 96.00 42.26 L 98.00 41.13 L 100.00 40.00 L 102.00 38.87 L 104.00 37.74 L 106.00 36.63 L 108.00 35.52 L 110.00 34.44 L 112.00 33.37 L 114.00 32.34 L 116.00 31.33 L 118.00 30.36 L 120.00 29.42 L 122.00 28.53 L 124.00 27.68 L 126.00 26.88 L 128.00 26.13 L 130.00 25.44 L 132.00 24.80 L 134.00 24.23 L 136.00 23.71 L 138.00 23.26 L 140.00 22.88 L 142.00 22.57 L 144.00 22.32 L 146.00 22.14 L 148.00 22.04 L 150.00 22.00 L 152.00 22.04 L 154.00 22.14 L 156.00 22.32 L 158.00 22.57 L 160.00 22.88 L 162.00 23.26 L 164.00 23.71 L 166.00 24.23 L 168.00 24.80 L 170.00 25.44 L 172.00 26.13 L 174.00 26.88 L 176.00 27.68 L 178.00 28.53 L 180.00 29.42 L 182.00 30.36 L 184.00 31.33 L 186.00 32.34 L 188.00 33.37 L 190.00 34.44 L 192.00 35.52 L 194.00 36.63 L 196.00 37.74 L 198.00 38.87 L 200.00 40.00 L 202.00 41.13 L 204.00 42.26 L 206.00 43.37 L 208.00 44.48 L 210.00 45.56 L 212.00 46.63 L 214.00 47.66 L 216.00 48.67 L 218.00 49.64 L 220.00 50.58 L 222.00 51.47 L 224.00 52.32 L 226.00 53.12 L 228.00 53.87 L 230.00 54.56 L 232.00 55.20 L 234.00 55.77 L 236.00 56.29 L 238.00 56.74 L 240.00 57.12 L 242.00 57.43 L 244.00 57.68 L 246.00 57.86 L 248.00 57.96 L 250.00 58.00 L 252.00 57.96 L 254.00 57.86 L 256.00 57.68 L 258.00 57.43 L 260.00 57.12 L 262.00 56.74 L 264.00 56.29 L 266.00 55.77 L 268.00 55.20 L 270.00 54.56 L 272.00 53.87 L 274.00 53.12 L 276.00 52.32 L 278.00 51.47 L 280.00 50.58 L 282.00 49.64 L 284.00 48.67 L 286.00 47.66 L 288.00 46.63 L 290.00 45.56 L 292.00 44.48 L 294.00 43.37 L 296.00 42.26 L 298.00 41.13 L 300.00 40.00 L 302.00 38.87 L 304.00 37.74 L 306.00 36.63 L 308.00 35.52 L 310.00 34.44 L 312.00 33.37 L 314.00 32.34 L 316.00 31.33 L 318.00 30.36 L 320.00 29.42 L 322.00 28.53 L 324.00 27.68 L 326.00 26.88 L 328.00 26.13 L 330.00 25.44 L 332.00 24.80 L 334.00 24.23 L 336.00 23.71 L 338.00 23.26 L 340.00 22.88 L 342.00 22.57 L 344.00 22.32 L 346.00 22.14 L 348.00 22.04 L 350.00 22.00 L 352.00 22.04 L 354.00 22.14 L 356.00 22.32 L 358.00 22.57 L 360.00 22.88 L 362.00 23.26 L 364.00 23.71 L 366.00 24.23 L 368.00 24.80 L 370.00 25.44 L 372.00 26.13 L 374.00 26.88 L 376.00 27.68 L 378.00 28.53 L 380.00 29.42 L 382.00 30.36 L 384.00 31.33 L 386.00 32.34 L 388.00 33.37 L 390.00 34.44 L 392.00 35.52 L 394.00 36.63 L 396.00 37.74 L 398.00 38.87 L 400.00 40.00" fill="none" />
    <circle cx="160.56" cy="17.71" r="1.2" />
    <circle cx="347.84" cy="23.17" r="1.2" />
    <circle cx="347.08" cy="26.72" r="1.2" />
    <circle cx="172.30" cy="21.82" r="1.2" />
    <circle cx="269.49" cy="42.62" r="1.2" />
    <circle cx="215.88" cy="33.42" r="1.2" />
  </g>
</svg>
