<svg xmlns="http://www.w3.org/2000/svg" width="600" height="400" viewBox="0 0 600 400">
  <g fill="#1a1a1a" stroke="#1a1a1a" stroke-width="0.5" stroke-linecap="round" stroke-linejoin="round">

    <!-- ============ Row 1 (y ~80–130) ============ -->

    <!-- M1: parabola, top-left -->
    <path d="M 65 125 Q 100 70 135 125" fill="none" />
    <circle cx="70"  cy="118" r="1.3" />
    <circle cx="85"  cy="95"  r="1.3" />
    <circle cx="100" cy="80"  r="1.3" />
    <circle cx="118" cy="88"  r="1.3" />
    <circle cx="130" cy="115" r="1.3" />

    <!-- M2: short line, top-middle -->
    <line x1="265" y1="80" x2="340" y2="105" />
    <circle cx="270" cy="78"  r="1.3" />
    <circle cx="288" cy="92"  r="1.3" />
    <circle cx="305" cy="86"  r="1.3" />
    <circle cx="325" cy="98"  r="1.3" />
    <circle cx="338" cy="108" r="1.3" />

    <!-- M3: wiggle, top-right -->
    <path d="M 460 110 Q 480 85 500 110 T 540 100 T 560 80" fill="none" />
    <circle cx="465" cy="105" r="1.3" />
    <circle cx="485" cy="90"  r="1.3" />
    <circle cx="505" cy="108" r="1.3" />
    <circle cx="525" cy="103" r="1.3" />
    <circle cx="550" cy="88"  r="1.3" />

    <!-- ============ Row 2 (y ~190–240) ============ -->

    <!-- M4: wiggle, middle-left -->
    <path d="M 80 220 Q 100 245 120 215 T 160 220 T 185 200" fill="none" />
    <circle cx="85"  cy="216" r="1.3" />
    <circle cx="105" cy="240" r="1.3" />
    <circle cx="125" cy="218" r="1.3" />
    <circle cx="148" cy="228" r="1.3" />
    <circle cx="172" cy="210" r="1.3" />
    <circle cx="185" cy="202" r="1.3" />

    <!-- M5: parabola, middle-center -->
    <path d="M 285 230 Q 320 175 355 230" fill="none" />
    <circle cx="290" cy="225" r="1.3" />
    <circle cx="305" cy="200" r="1.3" />
    <circle cx="320" cy="182" r="1.3" />
    <circle cx="340" cy="200" r="1.3" />
    <circle cx="355" cy="226" r="1.3" />

    <!-- M6: short line, middle-right -->
    <line x1="460" y1="200" x2="555" y2="220" />
    <circle cx="465" cy="198" r="1.3" />
    <circle cx="490" cy="212" r="1.3" />
    <circle cx="510" cy="205" r="1.3" />
    <circle cx="530" cy="218" r="1.3" />
    <circle cx="550" cy="217" r="1.3" />

    <!-- ============ Row 3 (y ~320–360) ============ -->

    <!-- M7: short line, bottom-left -->
    <line x1="60" y1="348" x2="150" y2="332" />
    <circle cx="65"  cy="350" r="1.3" />
    <circle cx="85"  cy="340" r="1.3" />
    <circle cx="105" cy="345" r="1.3" />
    <circle cx="125" cy="335" r="1.3" />
    <circle cx="148" cy="330" r="1.3" />

    <!-- M8: wiggle, bottom-center -->
    <path d="M 270 350 Q 285 332 300 358 T 325 362 T 350 345 T 370 350" fill="none" />
    <circle cx="272" cy="348" r="1.3" />
    <circle cx="290" cy="335" r="1.3" />
    <circle cx="307" cy="358" r="1.3" />
    <circle cx="325" cy="361" r="1.3" />
    <circle cx="348" cy="345" r="1.3" />
    <circle cx="365" cy="348" r="1.3" />

    <!-- M9: parabola, bottom-right -->
    <path d="M 475 362 Q 505 305 535 362" fill="none" />
    <circle cx="478" cy="358" r="1.3" />
    <circle cx="492" cy="335" r="1.3" />
    <circle cx="510" cy="312" r="1.3" />
    <circle cx="528" cy="335" r="1.3" />
    <circle cx="545" cy="358" r="1.3" />

    <!-- ============ Outliers between cells, no nearby curve ============ -->
    <circle cx="210" cy="170" r="1.3" />
    <circle cx="395" cy="170" r="1.3" />
    <circle cx="210" cy="285" r="1.3" />
    <circle cx="400" cy="285" r="1.3" />
    <circle cx="40"  cy="280" r="1.3" />
    <circle cx="580" cy="290" r="1.3" />
    <circle cx="240" cy="360" r="1.3" />
    <circle cx="420" cy="100" r="1.3" />

  </g>
</svg>
